Coordinates
version=1
nRows=22
nColumns=33
inDegrees=yes

Units are S.I. units (second, meters, Newtons, ...)
Angles are in degrees.

endheader
time	ground_thorax_rot_x	ground_thorax_rot_y	ground_thorax_rot_z	ground_thorax_tx	ground_thorax_ty	ground_thorax_tz	clav_prot_r	clav_elev_r	scapula_abduction_r	scapula_elevation_r	scapula_upward_rot_r	scapula_winging_r	shoulder_elv_r	plane_of_elev_r	axial_rot_r	elbow_flexion_r	pro_sup_r	wrist_flex_r	wrist_dev_r	clav_prot_l	clav_elev_l	scapula_abduction_l	scapula_elevation_l	scapula_upward_rot_l	scapula_winging_l	shoulder_elv_l	plane_of_elev_l	axial_rot_l	elbow_flexion_l	pro_sup_l	wrist_flex_l	wrist_dev_l	
4.4500	-40.241005	-0.603554	-4.980149	-214.540736	868.816265	-5.431472	13.194303	-45.000000	40.683290	-45.000000	-45.000000	1346.190579	-466.923377	149.429655	180.000000	5.669510	60.237704	27.617212	15.585498	15.189880	39.032307	-37.725867	-45.000000	-45.000000	-997.832163	-1536.314928	136.002260	-180.000000	1091.587973	-307.064762	7.540491	-23.971761	
4.4600	-40.246141	-0.349465	-5.134030	-215.102080	870.627468	-5.510732	13.196306	-45.000000	40.699766	-45.000000	-45.000000	1346.202885	-466.832469	149.455556	180.000000	5.957710	61.419910	27.883132	15.225982	15.195176	39.111127	-37.722746	-45.000000	-45.000000	-997.777102	-1536.286494	136.052661	-180.000000	1091.513643	-308.615616	7.806715	-24.038058	
4.4700	-40.255559	-0.097427	-5.280291	-215.600546	872.396139	-5.585391	13.201806	-45.000000	40.713843	-45.000000	-45.000000	1346.206642	-466.743255	149.466371	180.000000	6.223982	62.531749	28.150483	14.899056	15.237430	39.158413	-37.713248	-45.000000	-45.000000	-997.714053	-1536.234217	136.078131	-180.000000	1091.426858	-310.073656	8.044396	-24.080242	
4.4800	-40.259463	0.154854	-5.436470	-215.963668	874.072892	-5.648291	13.194156	-45.000000	40.756713	-45.000000	-45.000000	1346.200667	-466.656618	149.445863	180.000000	6.466623	63.327765	28.381960	14.669159	15.256752	39.168158	-37.729060	-45.000000	-44.999999	-997.653760	-1536.196936	136.101164	-180.000000	1091.364681	-311.231019	8.230643	-24.123326	
4.4900	-40.262340	0.405546	-5.592666	-216.181451	875.649578	-5.700155	13.186396	-45.000000	40.808490	-45.000000	-45.000000	1346.188722	-466.568741	149.390758	180.000000	6.678806	63.885279	28.582870	14.512476	15.276691	39.152094	-37.754695	-45.000000	-44.999999	-997.592024	-1536.151479	136.106357	-180.000000	1091.319493	-312.125124	8.371109	-24.161178	
4.5000	-40.266388	0.641525	-5.727830	-216.235555	877.112608	-5.740499	13.165381	-45.000000	40.876866	-45.000000	-45.000000	1346.178341	-466.480529	149.325729	180.000000	6.869104	64.219859	28.754964	14.419231	15.298138	39.113608	-37.799033	-45.000000	-44.999998	-997.530380	-1536.110611	136.113058	-180.000000	1091.294645	-312.757702	8.462828	-24.192490	
4.5100	-40.273111	0.846345	-5.828943	-216.126012	878.460747	-5.770665	13.154370	-45.000000	40.956037	-45.000000	-45.000000	1346.161284	-466.391657	149.253112	180.000000	7.042041	64.398948	28.891183	14.359630	15.318740	39.073913	-37.837537	-45.000000	-44.999997	-997.468566	-1536.062570	136.116624	-180.000000	1091.292156	-313.177981	8.518677	-24.221013	
4.5200	-40.282247	1.021004	-5.891813	-215.863099	879.700343	-5.792353	13.131729	-45.000000	41.043891	-45.000000	-45.000000	1346.147286	-466.299792	149.191300	180.000000	7.212826	64.491536	29.004429	14.312149	15.345304	39.038918	-37.877493	-45.000000	-44.999994	-997.406898	-1536.015002	136.126093	-180.000000	1091.307701	-313.448360	8.547955	-24.246116	
4.5300	-40.292856	1.170910	-5.930345	-215.459180	880.839399	-5.806855	13.120265	-45.000000	41.132319	-45.000000	-45.000000	1346.129949	-466.201933	149.121483	180.000000	7.378426	64.533896	29.092385	14.267074	15.370794	39.016891	-37.905911	-45.000000	-44.999990	-997.343298	-1535.953672	136.126578	-180.000000	1091.339908	-313.609247	8.563937	-24.273546	
4.5400	-40.304243	1.303410	-5.947243	-214.928478	881.887632	-5.815106	13.097719	-45.000000	41.222378	-45.000000	-45.000000	1346.119332	-466.094764	149.062388	180.000000	7.549023	64.548824	29.168583	14.222999	15.395605	39.004101	-37.946901	-45.000000	-44.999981	-997.278639	-1535.894741	136.135991	-180.000000	1091.384309	-313.694910	8.569340	-24.301837	
4.5500	-40.313299	1.431050	-5.963277	-214.285598	882.854484	-5.817853	13.083762	-45.000000	41.308444	-45.000000	-45.000000	1346.106408	-465.976956	148.988395	180.000000	7.718267	64.555514	29.234682	14.180497	15.418715	38.999659	-37.991002	-45.000000	-44.999967	-997.211459	-1535.824836	136.133606	-180.000000	1091.435201	-313.728362	8.571220	-24.332011	
4.5600	-40.319315	1.568746	-5.989720	-213.544897	883.748618	-5.815334	13.056633	-45.000000	41.384833	-45.000000	-45.000000	1346.107424	-465.843142	148.906207	180.000000	7.890224	64.569224	29.304140	14.142811	15.441014	39.000757	-38.062756	-45.000000	-44.999941	-997.142471	-1535.757439	136.129990	-180.000000	1091.489032	-313.726174	8.571545	-24.365190	
4.5700	-40.322019	1.717834	-6.030573	-212.719430	884.577160	-5.807182	13.037972	-45.000000	41.453276	-45.000000	-45.000000	1346.114004	-465.695291	148.799409	180.000000	8.051992	64.606563	29.376716	14.111952	15.461322	39.001079	-38.149341	-45.000000	-44.999894	-997.073202	-1535.679153	136.112899	-180.000000	1091.541789	-313.700144	8.571004	-24.399340	
4.5800	-40.326831	1.859652	-6.069816	-211.820533	885.346419	-5.792136	13.026532	-45.000000	41.520566	-45.000000	-45.000000	1346.129935	-465.538186	148.688246	180.000000	8.210510	64.678598	29.453026	14.082794	15.470036	39.001863	-38.250141	-45.000000	-44.999809	-997.008249	-1535.600429	136.106050	-180.000000	1091.593409	-313.659436	8.567087	-24.433039	
4.5900	-40.329522	1.987639	-6.100029	-210.857501	886.062771	-5.768173	13.029632	-45.000000	41.598788	-45.000000	-45.000000	1346.137626	-465.378163	148.569553	180.000000	8.362520	64.794540	29.529975	14.052771	15.464537	38.997174	-38.340921	-45.000000	-44.999659	-996.952313	-1535.508361	136.095187	-180.000000	1091.644492	-313.609479	8.556662	-24.462680	
4.6000	-40.335379	2.092658	-6.118710	-209.837252	886.734132	-5.732933	13.051769	-45.000000	41.694614	-45.000000	-45.000000	1346.135456	-465.222730	148.447755	180.000000	8.520726	64.955530	29.608033	14.016044	15.441412	38.988279	-38.414866	-45.000000	-44.999388	-996.903077	-1535.404872	136.085310	-180.000000	1091.695083	-313.551446	8.537569	-24.487076	
4.6100	-40.340290	2.177285	-6.121266	-208.763871	887.371106	-5.684576	13.081314	-45.000000	41.812413	-45.000000	-45.000000	1346.120047	-465.071048	148.331691	180.000000	8.686348	65.158566	29.688718	13.971819	15.398127	38.974177	-38.473379	-45.000000	-44.998904	-996.862481	-1535.289145	136.074758	-180.000000	1091.748387	-313.484440	8.506712	-24.505447	
4.6200	-40.349232	2.245331	-6.115639	-207.638232	887.987879	-5.622600	13.119360	-45.000000	41.945496	-45.000000	-45.000000	1346.096090	-464.923652	148.215256	180.000000	8.866444	65.394310	29.769900	13.917103	15.346862	38.960458	-38.527476	-45.000000	-44.998037	-996.819060	-1535.167712	136.065149	-180.000000	1091.801572	-313.405858	8.464433	-24.517585	
4.6300	-40.355340	2.305231	-6.099610	-206.458034	888.602299	-5.548307	13.148893	-45.000000	42.092312	-45.000000	-45.000000	1346.063202	-464.771763	148.103298	180.000000	9.053489	65.652616	29.851275	13.855654	15.288169	38.945550	-38.584975	-45.000000	-44.996484	-996.774300	-1535.038421	136.053288	-180.000000	1091.858236	-313.315128	8.408723	-24.523004	
4.6400	-40.362349	2.365250	-6.084846	-205.218092	889.235054	-5.464647	13.174196	-45.000000	42.241124	-45.000000	-45.000000	1346.028045	-464.610869	147.984896	180.000000	9.251897	65.919935	29.928015	13.785129	15.240532	38.937269	-38.664269	-45.000000	-44.993703	-996.711277	-1534.911427	136.038086	-180.000000	1091.915079	-313.211739	8.341517	-24.521918	
4.6500	-40.364953	2.431232	-6.070767	-203.911092	889.907897	-5.375465	13.182624	-45.000000	42.383899	-45.000000	-45.000000	1345.991285	-464.429790	147.857261	180.000000	9.451519	66.186416	30.000082	13.711611	15.198698	38.931255	-38.767906	-45.000000	-44.988716	-996.634177	-1534.779596	136.017819	-180.000000	1091.974692	-313.097744	8.261597	-24.513768	
4.6600	-40.366533	2.507337	-6.062822	-202.528554	890.641194	-5.284344	13.182039	-45.000000	42.516071	-45.000000	-45.000000	1345.953984	-464.227106	147.712409	180.000000	9.654887	66.441611	30.061641	13.632826	15.173873	38.932750	-38.903533	-45.000000	-44.979799	-996.531396	-1534.646742	135.991328	-180.000000	1092.034658	-312.974605	8.170721	-24.498441	
